<mxfile host="app.diagrams.net" modified="2021-02-27T15:22:02.750Z" agent="5.0 (Macintosh; Intel Mac OS X 10_15_6) AppleWebKit/605.1.15 (KHTML, like Gecko) Version/14.0.3 Safari/605.1.15" etag="2i6w-hN_4GluZxWUbV_-" version="14.1.9" type="github">
  <diagram name="Page-1" id="c7558073-3199-34d8-9f00-42111426c3f3">
    <mxGraphModel dx="946" dy="545" grid="1" gridSize="10" guides="1" tooltips="1" connect="1" arrows="1" fold="1" page="1" pageScale="1" pageWidth="826" pageHeight="1169" background="#ffffff" math="0" shadow="0">
      <root>
        <mxCell id="0" />
        <mxCell id="1" parent="0" />
        <mxCell id="CAKOB3ZQWrLJ5BJZfZmn-131" value="" style="rounded=0;whiteSpace=wrap;html=1;dashed=1;strokeColor=#000000;fillColor=none;gradientColor=none;fontSize=10;fontColor=none;" vertex="1" parent="1">
          <mxGeometry x="120" y="120" width="560" height="400" as="geometry" />
        </mxCell>
        <mxCell id="CAKOB3ZQWrLJ5BJZfZmn-97" value="UIKit" style="rounded=1;whiteSpace=wrap;html=1;strokeColor=#9673a6;fillColor=#e1d5e7;verticalAlign=bottom;fontSize=15;" vertex="1" parent="1">
          <mxGeometry x="300" y="310" width="300" height="160" as="geometry" />
        </mxCell>
        <mxCell id="CAKOB3ZQWrLJ5BJZfZmn-115" value="loginWithAppId" style="edgeStyle=orthogonalEdgeStyle;rounded=0;orthogonalLoop=1;jettySize=auto;html=1;entryX=1;entryY=0.5;entryDx=0;entryDy=0;endArrow=classic;endFill=1;fontSize=12;fontColor=none;exitX=1;exitY=0.5;exitDx=0;exitDy=0;dashed=1;" edge="1" parent="1" source="CAKOB3ZQWrLJ5BJZfZmn-96" target="CAKOB3ZQWrLJ5BJZfZmn-97">
          <mxGeometry x="-0.1707" relative="1" as="geometry">
            <mxPoint as="offset" />
          </mxGeometry>
        </mxCell>
        <mxCell id="CAKOB3ZQWrLJ5BJZfZmn-96" value="APP" style="rounded=1;whiteSpace=wrap;html=1;fillColor=#fff2cc;strokeColor=#FF9999;horizontal=1;verticalAlign=top;fontSize=15;" vertex="1" parent="1">
          <mxGeometry x="310" y="190" width="280" height="70" as="geometry" />
        </mxCell>
        <mxCell id="CAKOB3ZQWrLJ5BJZfZmn-100" value="手势认证界面" style="rounded=0;whiteSpace=wrap;html=1;fontSize=10;dashed=1;opacity=70;" vertex="1" parent="1">
          <mxGeometry x="335" y="344" width="70" height="30" as="geometry" />
        </mxCell>
        <mxCell id="CAKOB3ZQWrLJ5BJZfZmn-102" value="数字密码认证界面" style="rounded=0;whiteSpace=wrap;html=1;fontSize=10;opacity=70;dashed=1;" vertex="1" parent="1">
          <mxGeometry x="470" y="420" width="90" height="30" as="geometry" />
        </mxCell>
        <mxCell id="CAKOB3ZQWrLJ5BJZfZmn-104" value="其他界面" style="rounded=0;whiteSpace=wrap;html=1;gradientColor=none;fontSize=10;strokeColor=none;" vertex="1" parent="1">
          <mxGeometry x="558" y="339" width="30" height="30" as="geometry" />
        </mxCell>
        <mxCell id="CAKOB3ZQWrLJ5BJZfZmn-108" style="edgeStyle=orthogonalEdgeStyle;rounded=0;orthogonalLoop=1;jettySize=auto;html=1;entryX=0;entryY=0.5;entryDx=0;entryDy=0;dashed=1;fontSize=12;fontColor=none;" edge="1" parent="1" source="CAKOB3ZQWrLJ5BJZfZmn-107" target="CAKOB3ZQWrLJ5BJZfZmn-96">
          <mxGeometry relative="1" as="geometry" />
        </mxCell>
        <mxCell id="CAKOB3ZQWrLJ5BJZfZmn-109" value="启动" style="edgeLabel;html=1;align=center;verticalAlign=middle;resizable=0;points=[];fontSize=12;fontColor=none;" vertex="1" connectable="0" parent="CAKOB3ZQWrLJ5BJZfZmn-108">
          <mxGeometry x="-0.06" y="1" relative="1" as="geometry">
            <mxPoint y="-4" as="offset" />
          </mxGeometry>
        </mxCell>
        <mxCell id="CAKOB3ZQWrLJ5BJZfZmn-107" value="" style="ellipse;html=1;shape=endState;fillColor=#000000;strokeColor=#ff0000;fontSize=12;fontColor=none;" vertex="1" parent="1">
          <mxGeometry x="180" y="210" width="30" height="30" as="geometry" />
        </mxCell>
        <mxCell id="CAKOB3ZQWrLJ5BJZfZmn-111" style="edgeStyle=orthogonalEdgeStyle;rounded=0;orthogonalLoop=1;jettySize=auto;html=1;dashed=1;fontSize=12;fontColor=none;entryX=0.5;entryY=0;entryDx=0;entryDy=0;" edge="1" parent="1" target="CAKOB3ZQWrLJ5BJZfZmn-113">
          <mxGeometry relative="1" as="geometry">
            <mxPoint x="524" y="250" as="sourcePoint" />
          </mxGeometry>
        </mxCell>
        <mxCell id="CAKOB3ZQWrLJ5BJZfZmn-112" value="registerInterfaces" style="edgeLabel;html=1;align=center;verticalAlign=middle;resizable=0;points=[];fontSize=12;fontColor=none;" vertex="1" connectable="0" parent="CAKOB3ZQWrLJ5BJZfZmn-111">
          <mxGeometry x="-0.6387" relative="1" as="geometry">
            <mxPoint y="7" as="offset" />
          </mxGeometry>
        </mxCell>
        <mxCell id="CAKOB3ZQWrLJ5BJZfZmn-121" style="edgeStyle=orthogonalEdgeStyle;rounded=0;orthogonalLoop=1;jettySize=auto;html=1;entryX=0.833;entryY=0.705;entryDx=0;entryDy=0;entryPerimeter=0;dashed=1;endArrow=classic;endFill=1;fontSize=12;fontColor=none;" edge="1" parent="1" source="CAKOB3ZQWrLJ5BJZfZmn-113" target="CAKOB3ZQWrLJ5BJZfZmn-118">
          <mxGeometry relative="1" as="geometry" />
        </mxCell>
        <mxCell id="CAKOB3ZQWrLJ5BJZfZmn-113" value="数字密码认证界面" style="rounded=0;whiteSpace=wrap;html=1;fontSize=10;fillColor=#dae8fc;strokeColor=none;" vertex="1" parent="1">
          <mxGeometry x="478" y="400" width="92" height="30" as="geometry" />
        </mxCell>
        <mxCell id="CAKOB3ZQWrLJ5BJZfZmn-118" value="用户视图" style="rounded=0;whiteSpace=wrap;html=1;fillColor=#d5e8d4;fontSize=12;strokeColor=none;" vertex="1" parent="1">
          <mxGeometry x="187.5" y="260" width="15" height="220" as="geometry" />
        </mxCell>
        <mxCell id="CAKOB3ZQWrLJ5BJZfZmn-126" style="edgeStyle=orthogonalEdgeStyle;rounded=0;orthogonalLoop=1;jettySize=auto;html=1;entryX=0.5;entryY=0;entryDx=0;entryDy=0;dashed=1;endArrow=classic;endFill=1;fontSize=12;fontColor=none;" edge="1" parent="1" source="CAKOB3ZQWrLJ5BJZfZmn-122" target="CAKOB3ZQWrLJ5BJZfZmn-125">
          <mxGeometry relative="1" as="geometry" />
        </mxCell>
        <mxCell id="CAKOB3ZQWrLJ5BJZfZmn-122" value="手势认证界面" style="rounded=0;whiteSpace=wrap;html=1;fontSize=10;fillColor=#dae8fc;strokeColor=none;" vertex="1" parent="1">
          <mxGeometry x="350" y="220" width="70" height="30" as="geometry" />
        </mxCell>
        <mxCell id="CAKOB3ZQWrLJ5BJZfZmn-128" style="edgeStyle=orthogonalEdgeStyle;rounded=0;orthogonalLoop=1;jettySize=auto;html=1;entryX=0.967;entryY=0.555;entryDx=0;entryDy=0;entryPerimeter=0;dashed=1;endArrow=classic;endFill=1;fontSize=12;fontColor=none;" edge="1" parent="1" source="CAKOB3ZQWrLJ5BJZfZmn-101" target="CAKOB3ZQWrLJ5BJZfZmn-118">
          <mxGeometry relative="1" as="geometry" />
        </mxCell>
        <mxCell id="CAKOB3ZQWrLJ5BJZfZmn-101" value="人脸认证界面" style="rounded=0;whiteSpace=wrap;html=1;fontSize=10;opacity=70;dashed=1;" vertex="1" parent="1">
          <mxGeometry x="413" y="368" width="70" height="30" as="geometry" />
        </mxCell>
        <mxCell id="CAKOB3ZQWrLJ5BJZfZmn-129" style="edgeStyle=orthogonalEdgeStyle;rounded=0;orthogonalLoop=1;jettySize=auto;html=1;entryX=0.967;entryY=0.364;entryDx=0;entryDy=0;entryPerimeter=0;dashed=1;endArrow=classic;endFill=1;fontSize=12;fontColor=none;" edge="1" parent="1" source="CAKOB3ZQWrLJ5BJZfZmn-125" target="CAKOB3ZQWrLJ5BJZfZmn-118">
          <mxGeometry relative="1" as="geometry" />
        </mxCell>
        <mxCell id="CAKOB3ZQWrLJ5BJZfZmn-125" value="手势认证界面" style="rounded=0;whiteSpace=wrap;html=1;fontSize=10;fillColor=#dae8fc;strokeColor=none;" vertex="1" parent="1">
          <mxGeometry x="350" y="325" width="70" height="30" as="geometry" />
        </mxCell>
        <mxCell id="CAKOB3ZQWrLJ5BJZfZmn-127" value="registerInterfaces" style="edgeLabel;html=1;align=center;verticalAlign=middle;resizable=0;points=[];fontSize=12;fontColor=none;" vertex="1" connectable="0" parent="1">
          <mxGeometry x="389" y="283" as="geometry" />
        </mxCell>
        <mxCell id="CAKOB3ZQWrLJ5BJZfZmn-130" value="数字密码认证界面" style="rounded=0;whiteSpace=wrap;html=1;fontSize=10;fillColor=#dae8fc;strokeColor=none;" vertex="1" parent="1">
          <mxGeometry x="478" y="220" width="92" height="30" as="geometry" />
        </mxCell>
        <mxCell id="CAKOB3ZQWrLJ5BJZfZmn-132" value="UIKit界面&lt;br style=&quot;font-size: 12px;&quot;&gt;自定义方案" style="shape=delay;whiteSpace=wrap;html=1;dashed=1;strokeColor=#000000;gradientColor=none;fontSize=12;fontColor=none;align=left;fillColor=none;fontStyle=1" vertex="1" parent="1">
          <mxGeometry x="120" y="120" width="80" height="40" as="geometry" />
        </mxCell>
        <mxCell id="CAKOB3ZQWrLJ5BJZfZmn-133" value="" style="ellipse;html=1;shape=endState;fillColor=#000000;strokeColor=#ff0000;fontSize=12;fontColor=none;" vertex="1" parent="1">
          <mxGeometry x="378" y="132" width="15" height="15" as="geometry" />
        </mxCell>
        <mxCell id="CAKOB3ZQWrLJ5BJZfZmn-135" value="用户" style="text;html=1;strokeColor=none;fillColor=none;align=left;verticalAlign=middle;whiteSpace=wrap;rounded=0;dashed=1;fontSize=11;fontColor=none;" vertex="1" parent="1">
          <mxGeometry x="395" y="130" width="30" height="20" as="geometry" />
        </mxCell>
        <mxCell id="CAKOB3ZQWrLJ5BJZfZmn-136" value="" style="rounded=0;whiteSpace=wrap;html=1;fontSize=10;fillColor=#dae8fc;strokeColor=none;" vertex="1" parent="1">
          <mxGeometry x="431" y="130" width="46.67" height="20" as="geometry" />
        </mxCell>
        <mxCell id="CAKOB3ZQWrLJ5BJZfZmn-137" value="APP自定义界面" style="text;html=1;strokeColor=none;fillColor=none;align=left;verticalAlign=middle;whiteSpace=wrap;rounded=0;dashed=1;fontSize=11;fontColor=none;" vertex="1" parent="1">
          <mxGeometry x="479" y="130" width="80" height="20" as="geometry" />
        </mxCell>
        <mxCell id="CAKOB3ZQWrLJ5BJZfZmn-138" value="" style="rounded=0;whiteSpace=wrap;html=1;fontSize=10;dashed=1;" vertex="1" parent="1">
          <mxGeometry x="578" y="130" width="46.67" height="20" as="geometry" />
        </mxCell>
        <mxCell id="CAKOB3ZQWrLJ5BJZfZmn-139" value="UIKit界面" style="text;html=1;strokeColor=none;fillColor=none;align=left;verticalAlign=middle;whiteSpace=wrap;rounded=0;dashed=1;fontSize=11;fontColor=none;" vertex="1" parent="1">
          <mxGeometry x="626" y="130" width="54" height="20" as="geometry" />
        </mxCell>
      </root>
    </mxGraphModel>
  </diagram>
</mxfile>
